<?xml version="1.0" encoding="UTF-8"?>
<!DOCTYPE svg PUBLIC "-//W3C//DTD SVG 1.1//EN" "http://www.w3.org/Graphics/SVG/1.1/DTD/svg11.dtd">
<!-- Creator: CorelDRAW 2020 (64-Bit) -->
<svg xmlns="http://www.w3.org/2000/svg" xml:space="preserve" width="1.125in" height="0.364583in" version="1.1" style="shape-rendering:geometricPrecision; text-rendering:geometricPrecision; image-rendering:optimizeQuality; fill-rule:evenodd; clip-rule:evenodd"
viewBox="0 0 1125 364.58"
 xmlns:xlink="http://www.w3.org/1999/xlink"
 xmlns:xodm="http://www.corel.com/coreldraw/odm/2003">
 <defs>
  <style type="text/css">
   <![CDATA[
    .fil1 {fill:none}
    .fil0 {fill:#FEFEFE;fill-rule:nonzero}
   ]]>
  </style>
   <clipPath id="id0">
    <path d="M-0 364.58l1125 0 0 -364.58 -1125 0 0 364.58z"/>
   </clipPath>
 </defs>
 <g id="Layer_x0020_1">
  <metadata id="CorelCorpID_0Corel-Layer"/>
  <g>
  </g>
  <g style="clip-path:url(#id0)">
   <g>
    <g id="_1631817630464">
     <path class="fil0" d="M93.28 86.21c1.28,0 2.35,0.04 3.2,0.14 0.85,0.11 1.63,0.32 2.31,0.64 0.68,0.32 1.31,0.78 1.96,1.39 0.64,0.61 1.35,1.42 2.13,2.42l80.93 103.11c-0.28,-2.49 -0.46,-4.94 -0.57,-7.32 -0.11,-2.38 -0.18,-4.59 -0.18,-6.65l0 -93.72 25.27 0 0 154.19 -14.82 0c-2.28,0 -4.16,-0.35 -5.65,-1.07 -1.5,-0.71 -2.95,-1.99 -4.37,-3.84l-80.61 -102.69c0.21,2.28 0.39,4.52 0.5,6.76 0.11,2.24 0.14,4.3 0.14,6.15l0 94.69 -25.27 0 0 -154.19 15.04 0zm189.91 43.07c6.89,0 13.26,1.1 19.05,3.31 5.79,2.24 10.77,5.44 14.96,9.7 4.2,4.23 7.46,9.45 9.81,15.6 2.35,6.19 3.52,13.22 3.52,21.15 0,1.99 -0.07,3.66 -0.25,4.98 -0.18,1.31 -0.5,2.34 -0.96,3.09 -0.46,0.75 -1.1,1.28 -1.88,1.6 -0.78,0.32 -1.78,0.5 -2.99,0.5l-67.6 0c0.78,11.16 3.8,19.33 9.06,24.56 5.26,5.22 12.23,7.85 20.9,7.85 4.26,0 7.96,-0.5 11.05,-1.49 3.09,-1 5.8,-2.06 8.11,-3.27 2.31,-1.2 4.33,-2.31 6.07,-3.3 1.74,-0.96 3.41,-1.46 5.05,-1.46 1.07,0 1.99,0.21 2.78,0.64 0.78,0.43 1.46,1.03 2.02,1.81l7.68 9.63c-2.91,3.41 -6.19,6.26 -9.81,8.57 -3.63,2.31 -7.39,4.16 -11.34,5.54 -3.95,1.39 -7.96,2.38 -12.05,2.95 -4.09,0.57 -8.07,0.85 -11.91,0.85 -7.61,0 -14.68,-1.28 -21.22,-3.8 -6.54,-2.52 -12.23,-6.26 -17.06,-11.19 -4.83,-4.94 -8.64,-11.06 -11.41,-18.34 -2.78,-7.32 -4.16,-15.74 -4.16,-25.38 0,-7.46 1.21,-14.46 3.63,-21.08 2.42,-6.57 5.9,-12.3 10.41,-17.17 4.52,-4.87 10.02,-8.74 16.53,-11.59 6.5,-2.84 13.83,-4.27 22,-4.27zm0.53 18.98c-7.68,0 -13.69,2.17 -18.02,6.51 -4.33,4.33 -7.11,10.48 -8.32,18.44l49.48 0c0,-3.41 -0.46,-6.65 -1.39,-9.67 -0.92,-3.02 -2.35,-5.65 -4.26,-7.93 -1.92,-2.28 -4.34,-4.09 -7.25,-5.4 -2.91,-1.31 -6.33,-1.96 -10.24,-1.96zm68.24 92.13l0 -109.4 16.1 0c3.41,0 5.65,1.6 6.72,4.8l1.7 8.1c1.92,-2.13 3.95,-4.09 6.04,-5.87 2.1,-1.78 4.34,-3.3 6.72,-4.58 2.38,-1.28 4.94,-2.31 7.68,-3.06 2.74,-0.74 5.72,-1.1 8.99,-1.1 6.89,0 12.58,1.85 17.02,5.58 4.44,3.73 7.75,8.71 9.95,14.89 1.7,-3.63 3.84,-6.76 6.4,-9.35 2.56,-2.59 5.37,-4.69 8.43,-6.33 3.06,-1.63 6.33,-2.84 9.77,-3.63 3.45,-0.78 6.9,-1.17 10.38,-1.17 6.04,0 11.41,0.93 16.1,2.78 4.69,1.85 8.64,4.55 11.83,8.1 3.2,3.56 5.65,7.89 7.32,13.01 1.67,5.12 2.49,10.98 2.49,17.59l0 69.63 -26.34 0 0 -69.63c0,-6.96 -1.53,-12.22 -4.58,-15.74 -3.06,-3.52 -7.54,-5.26 -13.44,-5.26 -2.7,0 -5.19,0.46 -7.5,1.39 -2.31,0.92 -4.33,2.24 -6.08,3.98 -1.74,1.74 -3.13,3.94 -4.12,6.57 -1,2.63 -1.49,5.65 -1.49,9.06l0 69.63 -26.44 0 0 -69.63c0,-7.32 -1.46,-12.65 -4.41,-15.99 -2.95,-3.34 -7.32,-5.01 -13.08,-5.01 -3.77,0 -7.28,0.92 -10.59,2.81 -3.3,1.88 -6.4,4.48 -9.24,7.75l0 80.08 -26.34 0zm203.66 -109.4l0 69.45c0,6.65 1.56,11.83 4.66,15.5 3.09,3.66 7.71,5.47 13.9,5.47 4.55,0 8.81,-1 12.8,-2.98 3.98,-1.99 7.75,-4.76 11.3,-8.25l0 -79.19 26.33 0 0 109.4 -16.1 0c-3.41,0 -5.65,-1.6 -6.72,-4.8l-1.81 -8.74c-2.28,2.28 -4.62,4.34 -7.04,6.22 -2.41,1.89 -4.97,3.48 -7.71,4.8 -2.74,1.31 -5.69,2.35 -8.85,3.09 -3.16,0.75 -6.57,1.14 -10.2,1.14 -5.97,0 -11.23,-1.03 -15.81,-3.06 -4.59,-2.03 -8.46,-4.87 -11.59,-8.57 -3.13,-3.7 -5.48,-8.1 -7.07,-13.19 -1.6,-5.08 -2.42,-10.67 -2.42,-16.78l0 -69.52 26.34 0zm275.32 109.4l-22.18 0c-2.49,0 -4.52,-0.64 -6.11,-1.88 -1.6,-1.24 -2.77,-2.78 -3.48,-4.62l-11.52 -31.46 -63.87 0 -11.52 31.46c-0.57,1.63 -1.67,3.13 -3.34,4.48 -1.67,1.35 -3.73,2.03 -6.15,2.03l-22.28 0 60.56 -154.19 29.32 0 60.57 154.19zm-99.81 -58.11l49.16 0 -18.77 -51.29c-0.85,-2.28 -1.78,-4.98 -2.81,-8.07 -1.03,-3.09 -2.06,-6.43 -3.06,-10.06 -1,3.62 -1.96,7 -2.92,10.13 -0.96,3.13 -1.92,5.86 -2.84,8.21l-18.77 51.07zm114.2 93.94l0 -145.23 16.1 0c1.7,0 3.16,0.39 4.37,1.17 1.21,0.81 1.99,2.02 2.35,3.7l2.13 10.27c4.41,-5.08 9.49,-9.21 15.21,-12.33 5.72,-3.16 12.4,-4.73 20.08,-4.73 5.97,0 11.44,1.24 16.38,3.73 4.94,2.49 9.21,6.11 12.8,10.84 3.59,4.73 6.36,10.56 8.31,17.49 1.96,6.96 2.91,14.89 2.91,23.85 0,8.21 -1.1,15.78 -3.3,22.75 -2.2,6.97 -5.33,13.01 -9.42,18.17 -4.09,5.12 -9.03,9.1 -14.82,11.98 -5.8,2.88 -12.3,4.33 -19.48,4.33 -6.19,0 -11.41,-0.96 -15.71,-2.84 -4.3,-1.88 -8.17,-4.48 -11.59,-7.82l0 44.68 -26.34 0zm51.18 -126.25c-5.47,0 -10.13,1.21 -14,3.66 -3.87,2.45 -7.5,5.93 -10.84,10.38l0 48.27c2.98,3.66 6.26,6.19 9.78,7.61 3.52,1.46 7.28,2.17 11.33,2.17 3.98,0 7.61,-0.75 10.84,-2.24 3.24,-1.49 5.97,-3.77 8.21,-6.83 2.24,-3.06 3.95,-6.89 5.16,-11.55 1.2,-4.62 1.81,-10.13 1.81,-16.46 0,-6.36 -0.5,-11.76 -1.53,-16.2 -1.03,-4.44 -2.52,-8.04 -4.44,-10.81 -1.92,-2.77 -4.23,-4.8 -6.96,-6.08 -2.74,-1.28 -5.87,-1.92 -9.35,-1.92zm69.42 126.25l0 -145.23 16.1 0c1.7,0 3.16,0.39 4.37,1.17 1.21,0.81 1.99,2.02 2.35,3.7l2.13 10.27c4.41,-5.08 9.49,-9.21 15.21,-12.33 5.72,-3.16 12.4,-4.73 20.08,-4.73 5.97,0 11.44,1.24 16.38,3.73 4.94,2.49 9.21,6.11 12.8,10.84 3.59,4.73 6.36,10.56 8.31,17.49 1.96,6.96 2.91,14.89 2.91,23.85 0,8.21 -1.1,15.78 -3.3,22.75 -2.2,6.97 -5.33,13.01 -9.42,18.17 -4.09,5.12 -9.03,9.1 -14.82,11.98 -5.8,2.88 -12.3,4.33 -19.48,4.33 -6.19,0 -11.41,-0.96 -15.71,-2.84 -4.3,-1.88 -8.17,-4.48 -11.59,-7.82l0 44.68 -26.34 0zm51.18 -126.25c-5.47,0 -10.13,1.21 -14,3.66 -3.87,2.45 -7.5,5.93 -10.84,10.38l0 48.27c2.98,3.66 6.26,6.19 9.78,7.61 3.52,1.46 7.28,2.17 11.33,2.17 3.98,0 7.61,-0.75 10.84,-2.24 3.24,-1.49 5.97,-3.77 8.21,-6.83 2.24,-3.06 3.95,-6.89 5.16,-11.55 1.2,-4.62 1.81,-10.13 1.81,-16.46 0,-6.36 -0.5,-11.76 -1.53,-16.2 -1.03,-4.44 -2.52,-8.04 -4.44,-10.81 -1.92,-2.77 -4.23,-4.8 -6.96,-6.08 -2.74,-1.28 -5.87,-1.92 -9.35,-1.92z"/>
    </g>
   </g>
  </g>
  <polygon class="fil1" points="-0,364.58 1125,364.58 1125,0 -0,0 "/>
 </g>
</svg>
